<svg width="119" height="33" viewBox="0 0 119 33" fill="none" xmlns="http://www.w3.org/2000/svg">
<path d="M13.5352 25.6338C13.5352 25.7119 13.5156 25.7803 13.4766 25.8389C13.4473 25.8975 13.3887 25.9463 13.3008 25.9854C13.2227 26.0146 13.1152 26.0391 12.9785 26.0586C12.8418 26.0781 12.6758 26.0879 12.4805 26.0879C12.2754 26.0879 12.1045 26.0781 11.9678 26.0586C11.8311 26.0391 11.7188 26.0146 11.6309 25.9854C11.543 25.9463 11.4795 25.8975 11.4404 25.8389C11.4014 25.7803 11.3818 25.7119 11.3818 25.6338V23.8906C10.6885 24.6426 9.96582 25.2285 9.21387 25.6484C8.47168 26.0684 7.65625 26.2783 6.76758 26.2783C5.80078 26.2783 4.97559 26.0928 4.29199 25.7217C3.6084 25.3408 3.05176 24.833 2.62207 24.1982C2.20215 23.5537 1.89453 22.8018 1.69922 21.9424C1.50391 21.0732 1.40625 20.1602 1.40625 19.2031C1.40625 18.0703 1.52832 17.0498 1.77246 16.1416C2.0166 15.2236 2.37793 14.4424 2.85645 13.7979C3.33496 13.1533 3.92578 12.6602 4.62891 12.3184C5.3418 11.9668 6.16211 11.791 7.08984 11.791C7.86133 11.791 8.56445 11.9619 9.19922 12.3037C9.84375 12.6357 10.4785 13.1289 11.1035 13.7832V6.12207C11.1035 6.05371 11.1182 5.99023 11.1475 5.93164C11.1865 5.86328 11.2549 5.81445 11.3525 5.78516C11.4502 5.74609 11.5723 5.7168 11.7188 5.69727C11.875 5.66797 12.0703 5.65332 12.3047 5.65332C12.5488 5.65332 12.749 5.66797 12.9053 5.69727C13.0615 5.7168 13.1836 5.74609 13.2715 5.78516C13.3594 5.81445 13.4229 5.86328 13.4619 5.93164C13.5107 5.99023 13.5352 6.05371 13.5352 6.12207V25.6338ZM11.1035 16.3613C10.4492 15.5508 9.81445 14.9355 9.19922 14.5156C8.59375 14.0859 7.95898 13.8711 7.29492 13.8711C6.67969 13.8711 6.15723 14.0176 5.72754 14.3105C5.29785 14.6035 4.94629 14.9893 4.67285 15.4678C4.40918 15.9463 4.21387 16.4883 4.08691 17.0938C3.96973 17.6992 3.91113 18.3145 3.91113 18.9395C3.91113 19.6035 3.95996 20.2529 4.05762 20.8877C4.16504 21.5225 4.3457 22.0889 4.59961 22.5869C4.85352 23.0752 5.19043 23.4707 5.61035 23.7734C6.03027 24.0664 6.55762 24.2129 7.19238 24.2129C7.51465 24.2129 7.82227 24.1689 8.11523 24.0811C8.41797 23.9932 8.72559 23.8467 9.03809 23.6416C9.35059 23.4365 9.67773 23.1729 10.0195 22.8506C10.3613 22.5186 10.7227 22.1133 11.1035 21.6348V16.3613ZM25.708 13.3145C25.708 13.5293 25.7031 13.71 25.6934 13.8564C25.6836 14.0029 25.6641 14.1201 25.6348 14.208C25.6055 14.2861 25.5664 14.3496 25.5176 14.3984C25.4785 14.4375 25.4199 14.457 25.3418 14.457C25.2637 14.457 25.166 14.4375 25.0488 14.3984C24.9414 14.3496 24.8145 14.3057 24.668 14.2666C24.5312 14.2178 24.375 14.1738 24.1992 14.1348C24.0234 14.0957 23.833 14.0762 23.6279 14.0762C23.3838 14.0762 23.1445 14.125 22.9102 14.2227C22.6758 14.3203 22.4268 14.4814 22.1631 14.7061C21.9092 14.9307 21.6406 15.2285 21.3574 15.5996C21.0742 15.9707 20.7617 16.4248 20.4199 16.9619V25.6338C20.4199 25.7119 20.4004 25.7803 20.3613 25.8389C20.3223 25.8877 20.2588 25.9316 20.1709 25.9707C20.083 26.0098 19.9609 26.0391 19.8047 26.0586C19.6484 26.0781 19.4482 26.0879 19.2041 26.0879C18.9697 26.0879 18.7744 26.0781 18.6182 26.0586C18.4619 26.0391 18.335 26.0098 18.2373 25.9707C18.1494 25.9316 18.0859 25.8877 18.0469 25.8389C18.0176 25.7803 18.0029 25.7119 18.0029 25.6338V12.4502C18.0029 12.3721 18.0176 12.3086 18.0469 12.2598C18.0762 12.2012 18.1348 12.1523 18.2227 12.1133C18.3105 12.0645 18.4229 12.0352 18.5596 12.0254C18.6963 12.0059 18.877 11.9961 19.1016 11.9961C19.3164 11.9961 19.4922 12.0059 19.6289 12.0254C19.7754 12.0352 19.8877 12.0645 19.9658 12.1133C20.0439 12.1523 20.0977 12.2012 20.127 12.2598C20.166 12.3086 20.1855 12.3721 20.1855 12.4502V14.3691C20.5469 13.8418 20.8838 13.4121 21.1963 13.0801C21.5186 12.748 21.8213 12.4893 22.1045 12.3037C22.3877 12.1084 22.666 11.9766 22.9395 11.9082C23.2227 11.8301 23.5059 11.791 23.7891 11.791C23.916 11.791 24.0576 11.8008 24.2139 11.8203C24.3799 11.8301 24.5508 11.8545 24.7266 11.8936C24.9023 11.9326 25.0586 11.9766 25.1953 12.0254C25.3418 12.0742 25.4443 12.123 25.5029 12.1719C25.5615 12.2207 25.6006 12.2695 25.6201 12.3184C25.6396 12.3574 25.6543 12.4111 25.6641 12.4795C25.6836 12.5479 25.6934 12.6504 25.6934 12.7871C25.7031 12.9141 25.708 13.0898 25.708 13.3145ZM40.2246 18.8955C40.2246 19.9697 40.083 20.9609 39.7998 21.8691C39.5166 22.7676 39.0918 23.5439 38.5254 24.1982C37.9688 24.8525 37.2656 25.3652 36.416 25.7363C35.5762 26.0977 34.5996 26.2783 33.4863 26.2783C32.4023 26.2783 31.4551 26.1172 30.6445 25.7949C29.8438 25.4727 29.1748 25.0039 28.6377 24.3887C28.1006 23.7734 27.7002 23.0264 27.4365 22.1475C27.1729 21.2686 27.041 20.2725 27.041 19.1592C27.041 18.085 27.1777 17.0986 27.4512 16.2002C27.7344 15.292 28.1543 14.5107 28.7109 13.8564C29.2773 13.2021 29.9805 12.6943 30.8203 12.333C31.6602 11.9717 32.6416 11.791 33.7646 11.791C34.8486 11.791 35.791 11.9521 36.5918 12.2744C37.4023 12.5967 38.0762 13.0654 38.6133 13.6807C39.1504 14.2959 39.5508 15.043 39.8145 15.9219C40.0879 16.8008 40.2246 17.792 40.2246 18.8955ZM37.6758 19.0566C37.6758 18.3438 37.6074 17.6699 37.4707 17.0352C37.3438 16.4004 37.1289 15.8438 36.8262 15.3652C36.5234 14.8867 36.1133 14.5107 35.5957 14.2373C35.0781 13.9541 34.4336 13.8125 33.6621 13.8125C32.9492 13.8125 32.334 13.9395 31.8164 14.1934C31.3086 14.4473 30.8887 14.8086 30.5566 15.2773C30.2246 15.7363 29.9756 16.2832 29.8096 16.918C29.6533 17.5527 29.5752 18.2461 29.5752 18.998C29.5752 19.7207 29.6387 20.3994 29.7656 21.0342C29.9023 21.6689 30.1221 22.2256 30.4248 22.7041C30.7373 23.1729 31.1523 23.5488 31.6699 23.832C32.1875 24.1055 32.832 24.2422 33.6035 24.2422C34.3066 24.2422 34.917 24.1152 35.4346 23.8613C35.9521 23.6074 36.377 23.251 36.709 22.792C37.041 22.333 37.2852 21.7861 37.4414 21.1514C37.5977 20.5166 37.6758 19.8184 37.6758 19.0566ZM55.9131 18.8369C55.9131 19.9893 55.7861 21.0244 55.5322 21.9424C55.2881 22.8604 54.9219 23.6416 54.4336 24.2861C53.9551 24.9209 53.3594 25.4141 52.6465 25.7656C51.9336 26.1074 51.1182 26.2783 50.2002 26.2783C49.8096 26.2783 49.4482 26.2393 49.1162 26.1611C48.7842 26.083 48.457 25.9609 48.1348 25.7949C47.8223 25.6289 47.5098 25.4189 47.1973 25.165C46.8848 24.9111 46.5527 24.6133 46.2012 24.2715V30.8633C46.2012 30.9414 46.1816 31.0098 46.1426 31.0684C46.1035 31.127 46.04 31.1758 45.9521 31.2148C45.8643 31.2539 45.7422 31.2832 45.5859 31.3027C45.4297 31.3223 45.2295 31.332 44.9854 31.332C44.751 31.332 44.5557 31.3223 44.3994 31.3027C44.2432 31.2832 44.1162 31.2539 44.0186 31.2148C43.9307 31.1758 43.8672 31.127 43.8281 31.0684C43.7988 31.0098 43.7842 30.9414 43.7842 30.8633V12.4502C43.7842 12.3623 43.7988 12.2939 43.8281 12.2451C43.8574 12.1865 43.916 12.1377 44.0039 12.0986C44.0918 12.0596 44.2041 12.0352 44.3408 12.0254C44.4775 12.0059 44.6436 11.9961 44.8389 11.9961C45.0439 11.9961 45.21 12.0059 45.3369 12.0254C45.4736 12.0352 45.5859 12.0596 45.6738 12.0986C45.7617 12.1377 45.8203 12.1865 45.8496 12.2451C45.8887 12.2939 45.9082 12.3623 45.9082 12.4502V14.2227C46.3086 13.8125 46.6943 13.4561 47.0654 13.1533C47.4365 12.8506 47.8076 12.6016 48.1787 12.4062C48.5596 12.2012 48.9453 12.0498 49.3359 11.9521C49.7363 11.8447 50.1562 11.791 50.5957 11.791C51.5527 11.791 52.3682 11.9766 53.042 12.3477C53.7158 12.7188 54.2627 13.2266 54.6826 13.8711C55.1123 14.5156 55.4248 15.2676 55.6201 16.127C55.8154 16.9766 55.9131 17.8799 55.9131 18.8369ZM53.3643 19.1152C53.3643 18.4414 53.3105 17.792 53.2031 17.167C53.1055 16.5322 52.9297 15.9707 52.6758 15.4824C52.4316 14.9941 52.0996 14.6035 51.6797 14.3105C51.2598 14.0176 50.7373 13.8711 50.1123 13.8711C49.7998 13.8711 49.4922 13.9199 49.1895 14.0176C48.8867 14.1055 48.5791 14.252 48.2666 14.457C47.9541 14.6523 47.627 14.916 47.2852 15.248C46.9434 15.5703 46.582 15.9707 46.2012 16.4492V21.6934C46.8652 22.5039 47.4951 23.124 48.0908 23.5537C48.6865 23.9834 49.3115 24.1982 49.9658 24.1982C50.5713 24.1982 51.0889 24.0518 51.5186 23.7588C51.958 23.4658 52.3096 23.0752 52.5732 22.5869C52.8467 22.0986 53.0469 21.5518 53.1738 20.9463C53.3008 20.3408 53.3643 19.7305 53.3643 19.1152Z" fill="#FFB800"/>
<path d="M70.4805 8.12891C70.4805 8.31445 70.4707 8.47559 70.4512 8.6123C70.4316 8.74902 70.3975 8.86133 70.3486 8.94922C70.2998 9.02734 70.2412 9.08594 70.1729 9.125C70.1143 9.16406 70.0508 9.18359 69.9824 9.18359H63.0391V15.6289H69.6016C69.6699 15.6289 69.7334 15.6484 69.792 15.6875C69.8604 15.7168 69.9189 15.7705 69.9678 15.8486C70.0166 15.9268 70.0508 16.0342 70.0703 16.1709C70.0898 16.2979 70.0996 16.4639 70.0996 16.6689C70.0996 16.8545 70.0898 17.0156 70.0703 17.1523C70.0508 17.2793 70.0166 17.3867 69.9678 17.4746C69.9189 17.5527 69.8604 17.6162 69.792 17.665C69.7334 17.7041 69.6699 17.7236 69.6016 17.7236H63.0391V25.6191C63.0391 25.6875 63.0195 25.7559 62.9805 25.8242C62.9414 25.8828 62.873 25.9316 62.7754 25.9707C62.6777 26 62.5508 26.0244 62.3945 26.0439C62.2383 26.0732 62.0332 26.0879 61.7793 26.0879C61.5449 26.0879 61.3447 26.0732 61.1787 26.0439C61.0127 26.0244 60.8809 26 60.7832 25.9707C60.6855 25.9316 60.6172 25.8828 60.5781 25.8242C60.5391 25.7559 60.5195 25.6875 60.5195 25.6191V8.07031C60.5195 7.68945 60.6172 7.42578 60.8125 7.2793C61.0176 7.12305 61.2324 7.04492 61.457 7.04492H69.9824C70.0508 7.04492 70.1143 7.06445 70.1729 7.10352C70.2412 7.14258 70.2998 7.20605 70.3486 7.29395C70.3975 7.38184 70.4316 7.49902 70.4512 7.64551C70.4707 7.78223 70.4805 7.94336 70.4805 8.12891ZM85.8906 18.8955C85.8906 19.9697 85.749 20.9609 85.4658 21.8691C85.1826 22.7676 84.7578 23.5439 84.1914 24.1982C83.6348 24.8525 82.9316 25.3652 82.082 25.7363C81.2422 26.0977 80.2656 26.2783 79.1523 26.2783C78.0684 26.2783 77.1211 26.1172 76.3105 25.7949C75.5098 25.4727 74.8408 25.0039 74.3037 24.3887C73.7666 23.7734 73.3662 23.0264 73.1025 22.1475C72.8389 21.2686 72.707 20.2725 72.707 19.1592C72.707 18.085 72.8438 17.0986 73.1172 16.2002C73.4004 15.292 73.8203 14.5107 74.377 13.8564C74.9434 13.2021 75.6465 12.6943 76.4863 12.333C77.3262 11.9717 78.3076 11.791 79.4307 11.791C80.5146 11.791 81.457 11.9521 82.2578 12.2744C83.0684 12.5967 83.7422 13.0654 84.2793 13.6807C84.8164 14.2959 85.2168 15.043 85.4805 15.9219C85.7539 16.8008 85.8906 17.792 85.8906 18.8955ZM83.3418 19.0566C83.3418 18.3438 83.2734 17.6699 83.1367 17.0352C83.0098 16.4004 82.7949 15.8438 82.4922 15.3652C82.1895 14.8867 81.7793 14.5107 81.2617 14.2373C80.7441 13.9541 80.0996 13.8125 79.3281 13.8125C78.6152 13.8125 78 13.9395 77.4824 14.1934C76.9746 14.4473 76.5547 14.8086 76.2227 15.2773C75.8906 15.7363 75.6416 16.2832 75.4756 16.918C75.3193 17.5527 75.2412 18.2461 75.2412 18.998C75.2412 19.7207 75.3047 20.3994 75.4316 21.0342C75.5684 21.6689 75.7881 22.2256 76.0908 22.7041C76.4033 23.1729 76.8184 23.5488 77.3359 23.832C77.8535 24.1055 78.498 24.2422 79.2695 24.2422C79.9727 24.2422 80.583 24.1152 81.1006 23.8613C81.6182 23.6074 82.043 23.251 82.375 22.792C82.707 22.333 82.9512 21.7861 83.1074 21.1514C83.2637 20.5166 83.3418 19.8184 83.3418 19.0566ZM101.711 18.8955C101.711 19.9697 101.569 20.9609 101.286 21.8691C101.003 22.7676 100.578 23.5439 100.012 24.1982C99.4551 24.8525 98.752 25.3652 97.9023 25.7363C97.0625 26.0977 96.0859 26.2783 94.9727 26.2783C93.8887 26.2783 92.9414 26.1172 92.1309 25.7949C91.3301 25.4727 90.6611 25.0039 90.124 24.3887C89.5869 23.7734 89.1865 23.0264 88.9229 22.1475C88.6592 21.2686 88.5273 20.2725 88.5273 19.1592C88.5273 18.085 88.6641 17.0986 88.9375 16.2002C89.2207 15.292 89.6406 14.5107 90.1973 13.8564C90.7637 13.2021 91.4668 12.6943 92.3066 12.333C93.1465 11.9717 94.1279 11.791 95.251 11.791C96.335 11.791 97.2773 11.9521 98.0781 12.2744C98.8887 12.5967 99.5625 13.0654 100.1 13.6807C100.637 14.2959 101.037 15.043 101.301 15.9219C101.574 16.8008 101.711 17.792 101.711 18.8955ZM99.1621 19.0566C99.1621 18.3438 99.0938 17.6699 98.957 17.0352C98.8301 16.4004 98.6152 15.8438 98.3125 15.3652C98.0098 14.8867 97.5996 14.5107 97.082 14.2373C96.5645 13.9541 95.9199 13.8125 95.1484 13.8125C94.4355 13.8125 93.8203 13.9395 93.3027 14.1934C92.7949 14.4473 92.375 14.8086 92.043 15.2773C91.7109 15.7363 91.4619 16.2832 91.2959 16.918C91.1396 17.5527 91.0615 18.2461 91.0615 18.998C91.0615 19.7207 91.125 20.3994 91.252 21.0342C91.3887 21.6689 91.6084 22.2256 91.9111 22.7041C92.2236 23.1729 92.6387 23.5488 93.1562 23.832C93.6738 24.1055 94.3184 24.2422 95.0898 24.2422C95.793 24.2422 96.4033 24.1152 96.9209 23.8613C97.4385 23.6074 97.8633 23.251 98.1953 22.792C98.5273 22.333 98.7715 21.7861 98.9277 21.1514C99.084 20.5166 99.1621 19.8184 99.1621 19.0566ZM116.564 25.6338C116.564 25.7119 116.545 25.7803 116.506 25.8389C116.477 25.8975 116.418 25.9463 116.33 25.9854C116.252 26.0146 116.145 26.0391 116.008 26.0586C115.871 26.0781 115.705 26.0879 115.51 26.0879C115.305 26.0879 115.134 26.0781 114.997 26.0586C114.86 26.0391 114.748 26.0146 114.66 25.9854C114.572 25.9463 114.509 25.8975 114.47 25.8389C114.431 25.7803 114.411 25.7119 114.411 25.6338V23.8906C113.718 24.6426 112.995 25.2285 112.243 25.6484C111.501 26.0684 110.686 26.2783 109.797 26.2783C108.83 26.2783 108.005 26.0928 107.321 25.7217C106.638 25.3408 106.081 24.833 105.651 24.1982C105.231 23.5537 104.924 22.8018 104.729 21.9424C104.533 21.0732 104.436 20.1602 104.436 19.2031C104.436 18.0703 104.558 17.0498 104.802 16.1416C105.046 15.2236 105.407 14.4424 105.886 13.7979C106.364 13.1533 106.955 12.6602 107.658 12.3184C108.371 11.9668 109.191 11.791 110.119 11.791C110.891 11.791 111.594 11.9619 112.229 12.3037C112.873 12.6357 113.508 13.1289 114.133 13.7832V6.12207C114.133 6.05371 114.147 5.99023 114.177 5.93164C114.216 5.86328 114.284 5.81445 114.382 5.78516C114.479 5.74609 114.602 5.7168 114.748 5.69727C114.904 5.66797 115.1 5.65332 115.334 5.65332C115.578 5.65332 115.778 5.66797 115.935 5.69727C116.091 5.7168 116.213 5.74609 116.301 5.78516C116.389 5.81445 116.452 5.86328 116.491 5.93164C116.54 5.99023 116.564 6.05371 116.564 6.12207V25.6338ZM114.133 16.3613C113.479 15.5508 112.844 14.9355 112.229 14.5156C111.623 14.0859 110.988 13.8711 110.324 13.8711C109.709 13.8711 109.187 14.0176 108.757 14.3105C108.327 14.6035 107.976 14.9893 107.702 15.4678C107.438 15.9463 107.243 16.4883 107.116 17.0938C106.999 17.6992 106.94 18.3145 106.94 18.9395C106.94 19.6035 106.989 20.2529 107.087 20.8877C107.194 21.5225 107.375 22.0889 107.629 22.5869C107.883 23.0752 108.22 23.4707 108.64 23.7734C109.06 24.0664 109.587 24.2129 110.222 24.2129C110.544 24.2129 110.852 24.1689 111.145 24.0811C111.447 23.9932 111.755 23.8467 112.067 23.6416C112.38 23.4365 112.707 23.1729 113.049 22.8506C113.391 22.5186 113.752 22.1133 114.133 21.6348V16.3613Z" fill="white"/>
<path d="M70.3486 8.94922L70.7726 9.21422L70.7795 9.2033L70.7857 9.19204L70.3486 8.94922ZM70.1729 9.125L69.9248 8.69088L69.9098 8.69942L69.8955 8.70897L70.1729 9.125ZM63.0391 9.18359V8.68359H62.5391V9.18359H63.0391ZM63.0391 15.6289H62.5391V16.1289H63.0391V15.6289ZM69.792 15.6875L69.5146 16.1035L69.5528 16.129L69.595 16.1471L69.792 15.6875ZM70.0703 16.1709L69.5753 16.2416L69.5761 16.2469L70.0703 16.1709ZM70.0703 17.1523L70.5645 17.2284L70.5653 17.2231L70.0703 17.1523ZM69.9678 17.4746L70.3918 17.7396L70.3986 17.7287L70.4049 17.7174L69.9678 17.4746ZM69.792 17.665L70.0693 18.0811L70.0761 18.0766L70.0826 18.0719L69.792 17.665ZM63.0391 17.7236V17.2236H62.5391V17.7236H63.0391ZM62.9805 25.8242L63.3965 26.1016L63.406 26.0872L63.4146 26.0723L62.9805 25.8242ZM62.7754 25.9707L62.9191 26.4496L62.9404 26.4432L62.9611 26.4349L62.7754 25.9707ZM62.3945 26.0439L62.3325 25.5478L62.3174 25.5497L62.3024 25.5525L62.3945 26.0439ZM61.1787 26.0439L61.2656 25.5516L61.2514 25.5491L61.2371 25.5474L61.1787 26.0439ZM60.7832 25.9707L60.5975 26.4349L60.6182 26.4432L60.6395 26.4496L60.7832 25.9707ZM60.5781 25.8242L60.144 26.0723L60.1525 26.0872L60.1621 26.1016L60.5781 25.8242ZM60.8125 7.2793L61.1125 7.67931L61.1155 7.67701L60.8125 7.2793ZM70.1729 7.10352L69.8955 7.51954L69.9098 7.52909L69.9248 7.53764L70.1729 7.10352ZM70.4512 7.64551L69.9555 7.71159L69.9562 7.71622L70.4512 7.64551ZM69.9805 8.12891C69.9805 8.29827 69.9715 8.43468 69.9562 8.54159L70.9461 8.68302C70.9699 8.51649 70.9805 8.33064 70.9805 8.12891H69.9805ZM69.9562 8.54159C69.9423 8.63892 69.9219 8.68772 69.9116 8.7064L70.7857 9.19204C70.873 9.03493 70.921 8.85913 70.9461 8.68302L69.9562 8.54159ZM69.9246 8.68422C69.9181 8.69471 69.9143 8.69845 69.9145 8.6982C69.915 8.69773 69.9184 8.69452 69.9248 8.69088L70.4209 9.55912C70.5723 9.47262 70.6875 9.35043 70.7726 9.21422L69.9246 8.68422ZM69.8955 8.70897C69.904 8.70331 69.9171 8.69634 69.9343 8.69106C69.9515 8.68574 69.9682 8.68359 69.9824 8.68359V9.68359C70.1526 9.68359 70.3121 9.63309 70.4502 9.54103L69.8955 8.70897ZM69.9824 8.68359H63.0391V9.68359H69.9824V8.68359ZM62.5391 9.18359V15.6289H63.5391V9.18359H62.5391ZM63.0391 16.1289H69.6016V15.1289H63.0391V16.1289ZM69.6016 16.1289C69.5874 16.1289 69.5707 16.1268 69.5534 16.1214C69.5362 16.1162 69.5231 16.1092 69.5146 16.1035L70.0693 15.2715C69.9312 15.1794 69.7717 15.1289 69.6016 15.1289V16.1289ZM69.595 16.1471C69.574 16.1381 69.5587 16.1269 69.5493 16.1183C69.5406 16.1103 69.5396 16.1069 69.5438 16.1136L70.3918 15.5836C70.3019 15.4399 70.1714 15.3061 69.989 15.2279L69.595 16.1471ZM69.5438 16.1136C69.5417 16.1104 69.5464 16.117 69.5536 16.1394C69.5606 16.1616 69.5687 16.1948 69.5753 16.2416L70.5653 16.1002C70.5404 15.9258 70.4913 15.7428 70.3918 15.5836L69.5438 16.1136ZM69.5761 16.2469C69.5902 16.3384 69.5996 16.4762 69.5996 16.6689H70.5996C70.5996 16.4515 70.5895 16.2573 70.5645 16.0949L69.5761 16.2469ZM69.5996 16.6689C69.5996 16.8383 69.5906 16.9747 69.5753 17.0816L70.5653 17.2231C70.5891 17.0565 70.5996 16.8707 70.5996 16.6689H69.5996ZM69.5761 17.0763C69.5632 17.1602 69.544 17.2078 69.5307 17.2318L70.4049 17.7174C70.4892 17.5656 70.5383 17.3984 70.5645 17.2284L69.5761 17.0763ZM69.5438 17.2096C69.5263 17.2376 69.5115 17.251 69.5014 17.2582L70.0826 18.0719C70.2092 17.9815 70.3116 17.8679 70.3918 17.7396L69.5438 17.2096ZM69.5146 17.249C69.5231 17.2434 69.5362 17.2364 69.5534 17.2311C69.5707 17.2258 69.5874 17.2236 69.6016 17.2236V18.2236C69.7717 18.2236 69.9312 18.1731 70.0693 18.0811L69.5146 17.249ZM69.6016 17.2236H63.0391V18.2236H69.6016V17.2236ZM62.5391 17.7236V25.6191H63.5391V17.7236H62.5391ZM62.5391 25.6191C62.5391 25.605 62.5412 25.593 62.5437 25.5843C62.546 25.576 62.548 25.5732 62.5463 25.5761L63.4146 26.0723C63.4902 25.94 63.5391 25.787 63.5391 25.6191H62.5391ZM62.5644 25.5469C62.5843 25.5171 62.6034 25.5021 62.6093 25.4979C62.6146 25.4941 62.6103 25.4982 62.5897 25.5065L62.9611 26.4349C63.109 26.3758 63.2799 26.2764 63.3965 26.1016L62.5644 25.5469ZM62.6317 25.4918C62.571 25.51 62.4743 25.5301 62.3325 25.5478L62.4565 26.5401C62.6273 26.5187 62.7845 26.49 62.9191 26.4496L62.6317 25.4918ZM62.3024 25.5525C62.189 25.5738 62.0182 25.5879 61.7793 25.5879V26.5879C62.0482 26.5879 62.2876 26.5727 62.4867 26.5354L62.3024 25.5525ZM61.7793 25.5879C61.5637 25.5879 61.3943 25.5743 61.2656 25.5516L61.0918 26.5363C61.2952 26.5722 61.5261 26.5879 61.7793 26.5879V25.5879ZM61.2371 25.5474C61.0842 25.5294 60.9848 25.5092 60.9269 25.4918L60.6395 26.4496C60.777 26.4908 60.9412 26.5194 61.1203 26.5405L61.2371 25.5474ZM60.9689 25.5065C60.9483 25.4982 60.944 25.4941 60.9493 25.4979C60.9552 25.5021 60.9743 25.5171 60.9942 25.5469L60.1621 26.1016C60.2787 26.2764 60.4496 26.3758 60.5975 26.4349L60.9689 25.5065ZM61.0122 25.5761C61.0105 25.5732 61.0126 25.576 61.0149 25.5843C61.0174 25.593 61.0195 25.605 61.0195 25.6191H60.0195C60.0195 25.787 60.0684 25.94 60.144 26.0723L61.0122 25.5761ZM61.0195 25.6191V8.07031H60.0195V25.6191H61.0195ZM61.0195 8.07031C61.0195 7.75695 61.1009 7.68803 61.1125 7.6793L60.5125 6.8793C60.1335 7.16353 60.0195 7.62195 60.0195 8.07031H61.0195ZM61.1155 7.67701C61.247 7.57687 61.3577 7.54492 61.457 7.54492V6.54492C61.1072 6.54492 60.7882 6.66923 60.5095 6.88158L61.1155 7.67701ZM61.457 7.54492H69.9824V6.54492H61.457V7.54492ZM69.9824 7.54492C69.9682 7.54492 69.9515 7.54278 69.9343 7.53746C69.9171 7.53218 69.904 7.5252 69.8955 7.51954L70.4502 6.68749C70.3121 6.59542 70.1526 6.54492 69.9824 6.54492V7.54492ZM69.9248 7.53764C69.9105 7.52946 69.9027 7.52177 69.9007 7.51956C69.899 7.51777 69.9034 7.52206 69.9116 7.53677L70.7857 7.05112C70.7046 6.90519 70.5877 6.76471 70.4209 6.66939L69.9248 7.53764ZM69.9116 7.53677C69.9192 7.55059 69.9408 7.60063 69.9556 7.71159L70.9468 7.57943C70.9225 7.39742 70.8757 7.21308 70.7857 7.05112L69.9116 7.53677ZM69.9562 7.71622C69.9715 7.82313 69.9805 7.95955 69.9805 8.12891H70.9805C70.9805 7.92717 70.9699 7.74132 70.9461 7.5748L69.9562 7.71622ZM85.4658 21.8691L85.9427 22.0195L85.9432 22.018L85.4658 21.8691ZM84.1914 24.1982L83.8134 23.871L83.8106 23.8743L84.1914 24.1982ZM82.082 25.7363L82.2796 26.1956L82.2822 26.1945L82.082 25.7363ZM76.3105 25.7949L76.1239 26.2588L76.1258 26.2595L76.3105 25.7949ZM73.1172 16.2002L72.6398 16.0513L72.6389 16.0546L73.1172 16.2002ZM74.377 13.8564L73.9989 13.5292L73.9961 13.5325L74.377 13.8564ZM82.2578 12.2744L82.0711 12.7383L82.0731 12.739L82.2578 12.2744ZM85.4805 15.9219L85.0015 16.0656L85.003 16.0704L85.4805 15.9219ZM83.1367 17.0352L82.6464 17.1332L82.6479 17.1404L83.1367 17.0352ZM81.2617 14.2373L81.0217 14.676L81.0282 14.6794L81.2617 14.2373ZM77.4824 14.1934L77.2622 13.7445L77.2588 13.7461L77.4824 14.1934ZM76.2227 15.2773L76.6278 15.5704L76.6307 15.5664L76.2227 15.2773ZM75.4756 16.918L74.9918 16.7914L74.9901 16.7985L75.4756 16.918ZM75.4316 21.0342L74.9413 21.1322L74.9428 21.1395L75.4316 21.0342ZM76.0908 22.7041L75.6682 22.9715L75.6748 22.9815L76.0908 22.7041ZM77.3359 23.832L77.0959 24.2707L77.1024 24.2741L77.3359 23.832ZM85.3906 18.8955C85.3906 19.9257 85.2549 20.866 84.9885 21.7203L85.9432 22.018C86.2432 21.0558 86.3906 20.0138 86.3906 18.8955H85.3906ZM84.989 21.7188C84.7244 22.558 84.3313 23.2727 83.8134 23.871L84.5694 24.5255C85.1843 23.8152 85.6408 22.9772 85.9427 22.0195L84.989 21.7188ZM83.8106 23.8743C83.307 24.4662 82.6675 24.935 81.8819 25.2781L82.2822 26.1945C83.1958 25.7955 83.9625 25.2389 84.5722 24.5222L83.8106 23.8743ZM81.8844 25.277C81.119 25.6063 80.2121 25.7783 79.1523 25.7783V26.7783C80.3191 26.7783 81.3654 26.589 82.2796 26.1956L81.8844 25.277ZM79.1523 25.7783C78.1168 25.7783 77.2347 25.6243 76.4953 25.3303L76.1258 26.2595C77.0075 26.6101 78.0199 26.7783 79.1523 26.7783V25.7783ZM76.4972 25.3311C75.7652 25.0365 75.1627 24.6124 74.6804 24.0598L73.9271 24.7175C74.5189 25.3955 75.2543 25.9088 76.1239 26.2588L76.4972 25.3311ZM74.6804 24.0598C74.1956 23.5046 73.8272 22.8229 73.5815 22.0038L72.6236 22.2911C72.9052 23.2299 73.3376 24.0423 73.9271 24.7175L74.6804 24.0598ZM73.5815 22.0038C73.3344 21.1802 73.207 20.2338 73.207 19.1592H72.207C72.207 20.3111 72.3434 21.3569 72.6236 22.2911L73.5815 22.0038ZM73.207 19.1592C73.207 18.1273 73.3383 17.1908 73.5955 16.3458L72.6389 16.0546C72.3492 17.0065 72.207 18.0426 72.207 19.1592H73.207ZM73.5945 16.349C73.8598 15.4982 74.2492 14.7782 74.7578 14.1804L73.9961 13.5325C73.3914 14.2433 72.9409 15.0858 72.6399 16.0514L73.5945 16.349ZM74.755 14.1837C75.2692 13.5897 75.9094 13.1255 76.6839 12.7923L76.2887 11.8737C75.3836 12.2631 74.6175 12.8146 73.9989 13.5292L74.755 14.1837ZM76.6839 12.7923C77.4488 12.4632 78.3605 12.291 79.4307 12.291V11.291C78.2548 11.291 77.2035 11.4801 76.2887 11.8737L76.6839 12.7923ZM79.4307 12.291C80.4664 12.291 81.3427 12.4451 82.0711 12.7383L82.4445 11.8106C81.5713 11.4592 80.5629 11.291 79.4307 11.291V12.291ZM82.0731 12.739C82.8149 13.034 83.4213 13.4582 83.9026 14.0095L84.656 13.3518C84.063 12.6727 83.3218 12.1594 82.4425 11.8098L82.0731 12.739ZM83.9026 14.0095C84.3874 14.5647 84.7558 15.2465 85.0016 16.0655L85.9594 15.7782C85.6778 14.8395 85.2454 14.0271 84.656 13.3518L83.9026 14.0095ZM85.003 16.0704C85.2589 16.8928 85.3906 17.8327 85.3906 18.8955H86.3906C86.3906 17.7513 86.2489 16.7088 85.9579 15.7733L85.003 16.0704ZM83.8418 19.0566C83.8418 18.3118 83.7704 17.6024 83.6255 16.9299L82.6479 17.1404C82.7765 17.7374 82.8418 18.3757 82.8418 19.0566H83.8418ZM83.627 16.9371C83.4897 16.2507 83.2546 15.6351 82.9147 15.0979L82.0696 15.6326C82.3353 16.0524 82.5298 16.55 82.6464 17.1332L83.627 16.9371ZM82.9147 15.0979C82.5637 14.5431 82.0873 14.108 81.4953 13.7952L81.0282 14.6794C81.4713 14.9135 81.8152 15.2304 82.0696 15.6326L82.9147 15.0979ZM81.5017 13.7987C80.8914 13.4647 80.1585 13.3125 79.3281 13.3125V14.3125C80.0407 14.3125 80.5969 14.4435 81.0217 14.6759L81.5017 13.7987ZM79.3281 13.3125C78.5566 13.3125 77.8626 13.4499 77.2622 13.7445L77.7026 14.6423C78.1374 14.429 78.6739 14.3125 79.3281 14.3125V13.3125ZM77.2588 13.7461C76.6766 14.0373 76.1936 14.4533 75.8146 14.9883L76.6307 15.5664C76.9158 15.1639 77.2727 14.8573 77.706 14.6406L77.2588 13.7461ZM75.8175 14.9843C75.444 15.5007 75.1711 16.1061 74.9919 16.7915L75.9593 17.0445C76.1121 16.4603 76.3373 15.9719 76.6278 15.5704L75.8175 14.9843ZM74.9901 16.7985C74.8229 17.4777 74.7412 18.2117 74.7412 18.998H75.7412C75.7412 18.2805 75.8158 17.6278 75.9611 17.0375L74.9901 16.7985ZM74.7412 18.998C74.7412 19.7499 74.8072 20.4617 74.9414 21.1322L75.9219 20.9361C75.8021 20.3371 75.7412 19.6915 75.7412 18.998H74.7412ZM74.9428 21.1395C75.0902 21.8234 75.3299 22.4365 75.6683 22.9714L76.5134 22.4368C76.2463 22.0147 76.0466 21.5145 75.9204 20.9289L74.9428 21.1395ZM75.6748 22.9815C76.0342 23.5206 76.511 23.9506 77.0959 24.2707L77.5759 23.3934C77.1257 23.1471 76.7724 22.8251 76.5068 22.4268L75.6748 22.9815ZM77.1024 24.2741C77.7112 24.5957 78.4416 24.7422 79.2695 24.7422V23.7422C78.5545 23.7422 77.9959 23.6152 77.5695 23.3899L77.1024 24.2741ZM79.2695 24.7422C80.0325 24.7422 80.7213 24.6043 81.3208 24.3102L80.8804 23.4124C80.4447 23.6261 79.9128 23.7422 79.2695 23.7422V24.7422ZM81.3208 24.3102C81.9105 24.0209 82.3993 23.6115 82.7801 23.0851L81.9699 22.4989C81.6867 22.8904 81.3258 23.1939 80.8804 23.4124L81.3208 24.3102ZM82.7801 23.0851C83.1552 22.5665 83.4236 21.9586 83.5929 21.2709L82.6219 21.0319C82.4787 21.6137 82.2589 22.0995 81.9699 22.4989L82.7801 23.0851ZM83.5929 21.2709C83.7602 20.5912 83.8418 19.8522 83.8418 19.0566H82.8418C82.8418 19.7845 82.7671 20.442 82.6219 21.0319L83.5929 21.2709ZM101.286 21.8691L101.763 22.0195L101.763 22.018L101.286 21.8691ZM100.012 24.1982L99.6337 23.871L99.6309 23.8743L100.012 24.1982ZM97.9023 25.7363L98.1 26.1956L98.1025 26.1945L97.9023 25.7363ZM92.1309 25.7949L91.9442 26.2588L91.9461 26.2595L92.1309 25.7949ZM88.9375 16.2002L88.4602 16.0513L88.4592 16.0546L88.9375 16.2002ZM90.1973 13.8564L89.8192 13.5292L89.8164 13.5325L90.1973 13.8564ZM98.0781 12.2744L97.8915 12.7383L97.8934 12.739L98.0781 12.2744ZM101.301 15.9219L100.822 16.0656L100.823 16.0704L101.301 15.9219ZM98.957 17.0352L98.4667 17.1332L98.4682 17.1404L98.957 17.0352ZM97.082 14.2373L96.842 14.676L96.8485 14.6794L97.082 14.2373ZM93.3027 14.1934L93.0825 13.7445L93.0791 13.7461L93.3027 14.1934ZM92.043 15.2773L92.4481 15.5704L92.451 15.5664L92.043 15.2773ZM91.2959 16.918L90.8121 16.7914L90.8104 16.7985L91.2959 16.918ZM91.252 21.0342L90.7616 21.1322L90.7632 21.1395L91.252 21.0342ZM91.9111 22.7041L91.4885 22.9715L91.4951 22.9815L91.9111 22.7041ZM93.1562 23.832L92.9162 24.2707L92.9227 24.2741L93.1562 23.832ZM101.211 18.8955C101.211 19.9257 101.075 20.866 100.809 21.7203L101.763 22.018C102.063 21.0558 102.211 20.0138 102.211 18.8955H101.211ZM100.809 21.7188C100.545 22.558 100.152 23.2727 99.6337 23.871L100.39 24.5255C101.005 23.8152 101.461 22.9772 101.763 22.0195L100.809 21.7188ZM99.6309 23.8743C99.1273 24.4662 98.4878 24.935 97.7022 25.2781L98.1025 26.1945C99.0161 25.7955 99.7828 25.2389 100.393 24.5222L99.6309 23.8743ZM97.7047 25.277C96.9393 25.6063 96.0324 25.7783 94.9727 25.7783V26.7783C96.1395 26.7783 97.1857 26.589 98.0999 26.1956L97.7047 25.277ZM94.9727 25.7783C93.9371 25.7783 93.055 25.6243 92.3156 25.3303L91.9461 26.2595C92.8278 26.6101 93.8402 26.7783 94.9727 26.7783V25.7783ZM92.3175 25.3311C91.5856 25.0365 90.983 24.6124 90.5007 24.0598L89.7474 24.7175C90.3392 25.3955 91.0746 25.9088 91.9442 26.2588L92.3175 25.3311ZM90.5007 24.0598C90.016 23.5046 89.6475 22.8229 89.4018 22.0038L88.4439 22.2911C88.7256 23.2299 89.1579 24.0423 89.7474 24.7175L90.5007 24.0598ZM89.4018 22.0038C89.1547 21.1802 89.0273 20.2338 89.0273 19.1592H88.0273C88.0273 20.3111 88.1637 21.3569 88.4439 22.2911L89.4018 22.0038ZM89.0273 19.1592C89.0273 18.1273 89.1587 17.1908 89.4158 16.3458L88.4592 16.0546C88.1695 17.0065 88.0273 18.0426 88.0273 19.1592H89.0273ZM89.4148 16.349C89.6801 15.4982 90.0696 14.7782 90.5781 14.1804L89.8164 13.5325C89.2117 14.2433 88.7613 15.0858 88.4602 16.0514L89.4148 16.349ZM90.5753 14.1837C91.0895 13.5897 91.7297 13.1255 92.5042 12.7923L92.109 11.8737C91.2039 12.2631 90.4378 12.8146 89.8192 13.5292L90.5753 14.1837ZM92.5042 12.7923C93.2692 12.4632 94.1808 12.291 95.251 12.291V11.291C94.0751 11.291 93.0238 11.4801 92.109 11.8737L92.5042 12.7923ZM95.251 12.291C96.2868 12.291 97.1631 12.4451 97.8915 12.7383L98.2648 11.8106C97.3916 11.4592 96.3832 11.291 95.251 11.291V12.291ZM97.8934 12.739C98.6352 13.034 99.2416 13.4582 99.723 14.0095L100.476 13.3518C99.8834 12.6727 99.1421 12.1594 98.2629 11.8098L97.8934 12.739ZM99.723 14.0095C100.208 14.5647 100.576 15.2465 100.822 16.0655L101.78 15.7782C101.498 14.8395 101.066 14.0271 100.476 13.3518L99.723 14.0095ZM100.823 16.0704C101.079 16.8928 101.211 17.8327 101.211 18.8955H102.211C102.211 17.7513 102.069 16.7088 101.778 15.7733L100.823 16.0704ZM99.6621 19.0566C99.6621 18.3118 99.5907 17.6024 99.4458 16.9299L98.4682 17.1404C98.5968 17.7374 98.6621 18.3757 98.6621 19.0566H99.6621ZM99.4473 16.9371C99.3101 16.2507 99.0749 15.6351 98.735 15.0979L97.89 15.6326C98.1556 16.0524 98.3501 16.55 98.4667 17.1332L99.4473 16.9371ZM98.735 15.0979C98.384 14.5431 97.9076 14.108 97.3156 13.7952L96.8485 14.6794C97.2916 14.9135 97.6355 15.2304 97.89 15.6326L98.735 15.0979ZM97.322 13.7987C96.7117 13.4647 95.9788 13.3125 95.1484 13.3125V14.3125C95.861 14.3125 96.4172 14.4435 96.842 14.6759L97.322 13.7987ZM95.1484 13.3125C94.3769 13.3125 93.6829 13.4499 93.0825 13.7445L93.5229 14.6423C93.9577 14.429 94.4942 14.3125 95.1484 14.3125V13.3125ZM93.0791 13.7461C92.4969 14.0373 92.0139 14.4533 91.635 14.9883L92.451 15.5664C92.7361 15.1639 93.093 14.8573 93.5263 14.6406L93.0791 13.7461ZM91.6379 14.9843C91.2643 15.5007 90.9914 16.1061 90.8122 16.7915L91.7796 17.0445C91.9324 16.4603 92.1576 15.9719 92.4481 15.5704L91.6379 14.9843ZM90.8104 16.7985C90.6432 17.4777 90.5615 18.2117 90.5615 18.998H91.5615C91.5615 18.2805 91.6361 17.6278 91.7814 17.0375L90.8104 16.7985ZM90.5615 18.998C90.5615 19.7499 90.6276 20.4617 90.7617 21.1322L91.7422 20.9361C91.6224 20.3371 91.5615 19.6915 91.5615 18.998H90.5615ZM90.7632 21.1395C90.9105 21.8234 91.1502 22.4365 91.4886 22.9714L92.3337 22.4368C92.0666 22.0147 91.8669 21.5145 91.7407 20.9289L90.7632 21.1395ZM91.4951 22.9815C91.8545 23.5206 92.3313 23.9506 92.9162 24.2707L93.3963 23.3934C92.9461 23.1471 92.5927 22.8251 92.3272 22.4268L91.4951 22.9815ZM92.9227 24.2741C93.5315 24.5957 94.2619 24.7422 95.0898 24.7422V23.7422C94.3748 23.7422 93.8162 23.6152 93.3898 23.3899L92.9227 24.2741ZM95.0898 24.7422C95.8528 24.7422 96.5416 24.6043 97.1411 24.3102L96.7007 23.4124C96.2651 23.6261 95.7331 23.7422 95.0898 23.7422V24.7422ZM97.1411 24.3102C97.7308 24.0209 98.2196 23.6115 98.6004 23.0851L97.7902 22.4989C97.507 22.8904 97.1462 23.1939 96.7007 23.4124L97.1411 24.3102ZM98.6004 23.0851C98.9755 22.5665 99.244 21.9586 99.4132 21.2709L98.4422 21.0319C98.299 21.6137 98.0792 22.0995 97.7902 22.4989L98.6004 23.0851ZM99.4132 21.2709C99.5805 20.5912 99.6621 19.8522 99.6621 19.0566H98.6621C98.6621 19.7845 98.5874 20.442 98.4422 21.0319L99.4132 21.2709ZM116.506 25.8389L116.09 25.5615L116.073 25.5874L116.059 25.6153L116.506 25.8389ZM116.33 25.9854L116.506 26.4535L116.52 26.4483L116.533 26.4423L116.33 25.9854ZM114.66 25.9854L114.457 26.4423L114.479 26.4521L114.502 26.4597L114.66 25.9854ZM114.411 23.8906H114.911V22.6108L114.044 23.5517L114.411 23.8906ZM112.243 25.6484L111.999 25.2119L111.997 25.2133L112.243 25.6484ZM107.321 25.7217L107.078 26.1585L107.083 26.1611L107.321 25.7217ZM105.651 24.1982L105.232 24.4712L105.237 24.4785L105.651 24.1982ZM104.729 21.9424L104.241 22.052L104.241 22.0532L104.729 21.9424ZM104.802 16.1416L105.285 16.2714L105.285 16.2701L104.802 16.1416ZM107.658 12.3184L107.877 12.7681L107.879 12.7668L107.658 12.3184ZM112.229 12.3037L111.991 12.744L112 12.7482L112.229 12.3037ZM114.133 13.7832L113.771 14.1286L114.633 15.0305V13.7832H114.133ZM114.177 5.93164L113.743 5.68357L113.736 5.69562L113.73 5.70803L114.177 5.93164ZM114.382 5.78516L114.526 6.26407L114.547 6.25767L114.568 6.24939L114.382 5.78516ZM114.748 5.69727L114.814 6.19288L114.827 6.19113L114.84 6.1887L114.748 5.69727ZM115.935 5.69727L115.842 6.1887L115.857 6.19151L115.873 6.1934L115.935 5.69727ZM116.301 5.78516L116.098 6.24206L116.12 6.25187L116.143 6.2595L116.301 5.78516ZM116.491 5.93164L116.057 6.17971L116.079 6.21792L116.107 6.25173L116.491 5.93164ZM114.133 16.3613H114.633V16.1847L114.522 16.0473L114.133 16.3613ZM112.229 14.5156L111.939 14.9234L111.947 14.9286L112.229 14.5156ZM107.702 15.4678L107.268 15.2197L107.264 15.2265L107.702 15.4678ZM107.116 17.0938L106.627 16.9911L106.625 16.9987L107.116 17.0938ZM107.087 20.8877L106.593 20.9637L106.594 20.9711L107.087 20.8877ZM107.629 22.5869L107.183 22.814L107.185 22.8176L107.629 22.5869ZM108.64 23.7734L108.347 24.1791L108.354 24.1835L108.64 23.7734ZM111.145 24.0811L111.005 23.6009L111.001 23.6021L111.145 24.0811ZM113.049 22.8506L113.392 23.2144L113.397 23.2092L113.049 22.8506ZM114.133 21.6348L114.524 21.9461L114.633 21.8095V21.6348H114.133ZM116.064 25.6338C116.064 25.6309 116.065 25.621 116.069 25.6063C116.073 25.5912 116.08 25.5757 116.09 25.5615L116.922 26.1162C117.022 25.9666 117.064 25.7994 117.064 25.6338H116.064ZM116.059 25.6153C116.079 25.5736 116.105 25.5479 116.12 25.5353C116.134 25.5237 116.139 25.523 116.127 25.5284L116.533 26.4423C116.679 26.3775 116.852 26.2637 116.953 26.0625L116.059 25.6153ZM116.155 25.5172C116.125 25.5282 116.058 25.5463 115.937 25.5636L116.079 26.5536C116.231 26.5318 116.379 26.5011 116.506 26.4535L116.155 25.5172ZM115.937 25.5636C115.831 25.5788 115.69 25.5879 115.51 25.5879V26.5879C115.72 26.5879 115.911 26.5775 116.079 26.5536L115.937 25.5636ZM115.51 25.5879C115.318 25.5879 115.173 25.5786 115.068 25.5636L114.926 26.5536C115.095 26.5776 115.291 26.5879 115.51 26.5879V25.5879ZM115.068 25.5636C114.948 25.5465 114.868 25.5274 114.818 25.511L114.502 26.4597C114.629 26.5019 114.773 26.5316 114.926 26.5536L115.068 25.5636ZM114.863 25.5284C114.849 25.5219 114.846 25.5191 114.851 25.5231C114.857 25.5275 114.871 25.5396 114.886 25.5615L114.054 26.1162C114.161 26.2775 114.313 26.3783 114.457 26.4423L114.863 25.5284ZM114.886 25.5615C114.895 25.5757 114.902 25.5912 114.907 25.6063C114.911 25.621 114.911 25.6309 114.911 25.6338H113.911C113.911 25.7994 113.954 25.9666 114.054 26.1162L114.886 25.5615ZM114.911 25.6338V23.8906H113.911V25.6338H114.911ZM114.044 23.5517C113.38 24.2718 112.697 24.8221 111.999 25.2119L112.487 26.085C113.293 25.635 114.056 25.0133 114.779 24.2296L114.044 23.5517ZM111.997 25.2133C111.333 25.5889 110.603 25.7783 109.797 25.7783V26.7783C110.768 26.7783 111.669 26.5479 112.489 26.0836L111.997 25.2133ZM109.797 25.7783C108.893 25.7783 108.154 25.6051 107.56 25.2823L107.083 26.1611C107.855 26.5805 108.767 26.7783 109.797 26.7783V25.7783ZM107.565 25.2849C106.948 24.9413 106.45 24.4865 106.065 23.918L105.237 24.4785C105.712 25.1795 106.327 25.7403 107.078 26.1585L107.565 25.2849ZM106.07 23.9253C105.687 23.337 105.4 22.6416 105.216 21.8316L104.241 22.0532C104.447 22.962 104.776 23.7704 105.232 24.4712L106.07 23.9253ZM105.216 21.8328C105.03 21.0022 104.936 20.126 104.936 19.2031H103.936C103.936 20.1943 104.037 21.1443 104.241 22.052L105.216 21.8328ZM104.936 19.2031C104.936 18.1055 105.054 17.1297 105.285 16.2714L104.319 16.0118C104.061 16.9699 103.936 18.0351 103.936 19.2031H104.936ZM105.285 16.2701C105.516 15.4023 105.853 14.6812 106.287 14.0959L105.484 13.4998C104.962 14.2036 104.576 15.0449 104.319 16.0131L105.285 16.2701ZM106.287 14.0959C106.719 13.5141 107.248 13.0738 107.877 12.768L107.44 11.8687C106.662 12.2466 106.009 12.7926 105.484 13.4998L106.287 14.0959ZM107.879 12.7668C108.513 12.4544 109.255 12.291 110.119 12.291V11.291C109.127 11.291 108.229 11.4792 107.437 11.8699L107.879 12.7668ZM110.119 12.291C110.814 12.291 111.435 12.4441 111.991 12.7439L112.466 11.8635C111.753 11.4797 110.967 11.291 110.119 11.291V12.291ZM112 12.7482C112.584 13.0494 113.176 13.5049 113.771 14.1286L114.494 13.4378C113.84 12.7529 113.162 12.2221 112.457 11.8592L112 12.7482ZM114.633 13.7832V6.12207H113.633V13.7832H114.633ZM114.633 6.12207C114.633 6.12387 114.633 6.12872 114.631 6.13562C114.629 6.14261 114.627 6.1494 114.624 6.15525L113.73 5.70803C113.664 5.8391 113.633 5.97957 113.633 6.12207H114.633ZM114.611 6.17971C114.592 6.21234 114.568 6.23594 114.548 6.25062C114.529 6.26411 114.518 6.26619 114.526 6.26407L114.238 5.30624C114.055 5.36113 113.862 5.47395 113.743 5.68357L114.611 6.17971ZM114.568 6.24939C114.615 6.23049 114.694 6.20896 114.814 6.19288L114.682 5.20165C114.51 5.22463 114.344 5.26169 114.196 5.32092L114.568 6.24939ZM114.84 6.1887C114.955 6.16709 115.117 6.15332 115.334 6.15332V5.15332C115.082 5.15332 114.853 5.16885 114.656 5.20583L114.84 6.1887ZM115.334 6.15332C115.562 6.15332 115.728 6.16727 115.842 6.1887L116.027 5.20583C115.829 5.16867 115.595 5.15332 115.334 5.15332V6.15332ZM115.873 6.1934C116.007 6.2102 116.074 6.23153 116.098 6.24206L116.504 5.32825C116.352 5.26066 116.175 5.2234 115.997 5.20113L115.873 6.1934ZM116.143 6.2595C116.142 6.25922 116.128 6.25453 116.109 6.24006C116.09 6.22482 116.071 6.20402 116.057 6.17971L116.925 5.68357C116.815 5.48997 116.642 5.37173 116.459 5.31081L116.143 6.2595ZM116.107 6.25173C116.101 6.24405 116.089 6.22781 116.079 6.20268C116.07 6.17684 116.064 6.14894 116.064 6.12207H117.064C117.064 5.92309 116.99 5.74892 116.875 5.61155L116.107 6.25173ZM116.064 6.12207V25.6338H117.064V6.12207H116.064ZM114.522 16.0473C113.848 15.2126 113.178 14.5587 112.51 14.1027L111.947 14.9286C112.509 15.3124 113.109 15.889 113.744 16.6754L114.522 16.0473ZM112.518 14.1079C111.838 13.6256 111.104 13.3711 110.324 13.3711V14.3711C110.873 14.3711 111.408 14.5463 111.939 14.9234L112.518 14.1079ZM110.324 13.3711C109.627 13.3711 109.002 13.5381 108.475 13.8974L109.039 14.7237C109.371 14.497 109.791 14.3711 110.324 14.3711V13.3711ZM108.475 13.8974C107.979 14.2357 107.577 14.6794 107.268 15.2197L108.136 15.7158C108.374 15.2992 108.675 14.9714 109.039 14.7237L108.475 13.8974ZM107.264 15.2265C106.974 15.7537 106.763 16.3435 106.627 16.9911L107.606 17.1964C107.724 16.6331 107.903 16.1389 108.14 15.7091L107.264 15.2265ZM106.625 16.9987C106.502 17.6359 106.44 18.283 106.44 18.9395H107.44C107.44 18.3459 107.496 17.7625 107.607 17.1888L106.625 16.9987ZM106.44 18.9395C106.44 19.6281 106.491 20.303 106.593 20.9637L107.581 20.8117C107.487 20.2029 107.44 19.5789 107.44 18.9395H106.44ZM106.594 20.9711C106.709 21.6485 106.903 22.2645 107.183 22.814L108.074 22.3598C107.847 21.9132 107.68 21.3964 107.58 20.8043L106.594 20.9711ZM107.185 22.8176C107.473 23.3707 107.86 23.8277 108.347 24.179L108.932 23.3678C108.579 23.1137 108.293 22.7797 108.073 22.3562L107.185 22.8176ZM108.354 24.1835C108.876 24.5477 109.509 24.7129 110.222 24.7129V23.7129C109.664 23.7129 109.244 23.5851 108.926 23.3634L108.354 24.1835ZM110.222 24.7129C110.59 24.7129 110.946 24.6626 111.288 24.56L111.001 23.6021C110.757 23.6753 110.498 23.7129 110.222 23.7129V24.7129ZM111.284 24.5612C111.642 24.4572 111.995 24.2871 112.342 24.0596L111.793 23.2236C111.515 23.4063 111.252 23.5292 111.005 23.6009L111.284 24.5612ZM112.342 24.0596C112.684 23.8351 113.034 23.5518 113.392 23.2144L112.706 22.4868C112.38 22.7939 112.076 23.038 111.793 23.2236L112.342 24.0596ZM113.397 23.2092C113.758 22.8589 114.133 22.4369 114.524 21.9461L113.742 21.3234C113.37 21.7897 113.023 22.1782 112.7 22.4919L113.397 23.2092ZM114.633 21.6348V16.3613H113.633V21.6348H114.633Z" fill="black"/>
</svg>
